<svg width="21" height="20" viewBox="0 0 21 20" fill="none" xmlns="http://www.w3.org/2000/svg">
<g id="arrow.svg" clip-path="url(#clip0_192_1546)">
<g id="icon/arrow">
<path id="Fill-1" fill-rule="evenodd" clip-rule="evenodd" d="M20.3737 9.3488L12.6937 1.29616C12.3356 0.929794 11.7543 0.887239 11.3362 1.25916C10.9631 1.59037 10.9537 2.23798 11.2987 2.59878L17.4639 9.05273H1.80375C1.27311 9.05273 0.84375 9.47646 0.84375 10.0001C0.84375 10.5237 1.27313 10.9475 1.80375 10.9475H17.4639L11.2987 17.4014C10.9537 17.7622 10.9781 18.3932 11.3362 18.7411C11.715 19.1074 12.3412 19.076 12.6937 18.704L20.3737 10.6514C20.5987 10.4331 20.64 10.2221 20.6437 10.0001C20.6437 9.78178 20.5087 9.48944 20.3737 9.3488Z" fill="url(#paint0_linear_192_1546)"/>
</g>
</g>
<defs>
<linearGradient id="paint0_linear_192_1546" x1="0.84375" y1="2.56198" x2="19.0888" y2="19.1484" gradientUnits="userSpaceOnUse">
<stop stop-color="#665DCD"/>
<stop offset="0.447624" stop-color="#5FA4E6"/>
<stop offset="1" stop-color="#D2AB67"/>
</linearGradient>
<clipPath id="clip0_192_1546">
<rect width="20" height="20" fill="white" transform="translate(0.84375)"/>
</clipPath>
</defs>
</svg>
